<svg xmlns="http://www.w3.org/2000/svg" viewBox="0 0 60 32" width="60" height="32">
  <rect width="60" height="32" fill="white"/>
  <rect width="15" height="32" fill="#FF0000"/>
  <rect x="15" width="30" height="32" fill="#FFFFFF"/>
  <rect x="45" width="15" height="32" fill="#FF0000"/>
  <path d="M 50.000 14.286
L 52.381 28.571
L 57.143 23.810 47.619 35.714 52.381 33.333
L 64.286 42.857 60.714 41.667 66.667 50.000
L 60.714 50.000 61.905 54.762 52.381 53.571
L 54.762 57.143 50.000 57.143 45.238 57.143
L 47.619 53.571 38.095 54.762 39.286 50.000
L 33.333 50.000 39.286 41.667 35.714 42.857
L 47.619 33.333 52.381 35.714 42.857 23.810
L 47.619 28.571 Z" transform="translate(30,16) scale(0.135) translate(-50,-50)" fill="#FF0000"/>
</svg>